<?xml version="1.0" ?>
<!DOCTYPE svg PUBLIC '-//W3C//DTD SVG 1.1//EN' 'http://www.w3.org/Graphics/SVG/1.1/DTD/svg11.dtd'><svg enable-background="new 0 0 128 128" id="Layer_1" version="1.1" viewBox="0 0 128 128" xml:space="preserve" xmlns="http://www.w3.org/2000/svg" xmlns:xlink="http://www.w3.org/1999/xlink">
  <g>
    <circle cx="64" cy="64" fill="#7E57C2" r="63.5" />
    <g>
      <g>
        <circle cx="71.3" cy="51.4" fill="#FFFFFF" r="4.4" />
        <circle cx="100.6" cy="64" fill="#FFFFFF" r="4.4" />
        <ellipse cx="86.7" cy="58" fill="#FFFFFF" rx="2.9" ry="15.1" transform="matrix(0.3934 -0.9194 0.9194 0.3934 -0.7177 114.9308)" />
      </g>
      <g>
        <g>
          <path d="M73.3,28.9l-15.7-6.7c-0.9-0.4-2,0-2.4,0.9L51,32.9c-0.4,0.9,0,2,0.9,2.4L67.7,42c0.9,0.4,2,0,2.4-0.9      l4.2-9.9C74.7,30.3,74.2,29.3,73.3,28.9z" fill="#009DD1" />
          <g>
            <path d="M63,57.6l-4.2,9.8c-0.4,0.9-1.5,1.3-2.4,1l-15.7-6.7c-0.9-0.4-1.3-1.5-1-2.4l4.2-9.8       c0.4-0.9,1.5-1.3,2.4-1L62,55.3C62.9,55.7,63.4,56.7,63,57.6z" fill="#009DD1" />
          </g>
        </g>
        <path d="M70.8,41.4L51.9,30.7c-0.9-0.5-1.9-0.1-2.3,0.8l-7.7,18c-0.4,0.9,0.1,2,1,2.2L63.7,58     c0.6,0.2,1.3-0.3,1.6-1l5.9-13.8C71.5,42.5,71.3,41.7,70.8,41.4z" fill="#01377D" />
      </g>
      <path d="M73.8,77h-41c-1.6,0-2.9,1.3-2.9,2.9v4.5h46.7v-4.5C76.7,78.3,75.4,77,73.8,77z" fill="#01377D" />
      <path d="M83.6,94.1H23v-5.9c0-2.1,1.7-3.8,3.8-3.8h53.1c2.1,0,3.8,1.7,3.8,3.8V94.1z" fill="#009DD1" />
    </g>
  </g>
</svg>